<?xml version="1.0" encoding="utf-8"?>
<!-- Generator: Adobe Illustrator 23.0.3, SVG Export Plug-In . SVG Version: 6.00 Build 0)  -->
<svg version="1.1" id="Layer_1" xmlns="http://www.w3.org/2000/svg" xmlns:xlink="http://www.w3.org/1999/xlink" x="0px" y="0px"
	 viewBox="0 0 851.1 153.9" style="enable-background:new 0 0 851.1 153.9;" xml:space="preserve">
<style type="text/css">
	.st0{fill:#BEBFC3;}
	.st1{fill:#F1EFEF;}
	.st2{fill:#DCDADC;}
</style>
<g>
	<path d="M0.1,88.2l0.2-2c0.4-4.8,1.2-9.5,2.3-14.1l0.7-2.5c1.7-6.7,4.1-13.1,7.1-19.2c0.2-0.3,0.1-0.7-0.1-1
		c-1.5-2-3.3-4.3-4.4-6.4c-5.7-11-4.1-23.7,4.2-33.1c11.5-13,31.5-14,40.5,2.8c0.1,0.2,0.4,0.4,0.7,0.3c3.8-1.1,6-1.8,6.5-1.9
		c16.1-4.8,33.4-4,49.3,1.7c0.6,0.2,1.2,0,1.5-0.5C113,5,118.2,0.4,127.1,0c4.4-0.2,8.3,0.5,11.6,2c8.5,4,14.1,10.1,16.8,18.5
		c2.2,7,1.8,13.9-1.3,20.7c-1.2,2.7-3.4,5.4-5.2,7.7c-0.3,0.3-0.3,0.8-0.1,1.2c5.2,10.4,8.5,21.6,10,33.8
		c2.2,17.7-2.6,34.9-15.5,47.4c-12.6,12.3-30.9,19-48.2,21.4c-18.2,2.5-36,0.7-53.4-5.6c-7.7-2.8-14.6-6.5-20.7-11.1
		C8.8,126.5,1.7,113.8,0.2,97.9C0,95.4-0.1,92.2,0.1,88.2z M146.7,119c4.7-7.5,7.2-15.6,7.6-24.3c0.2-2.5,0.1-5.3-0.2-8.5
		c-0.6-6.7-1.8-13-3.4-18.8c-5.7-20.3-19.7-37.9-38.8-46.9C83.1,7,48.3,12.9,26.6,36.1c-13,13.8-19.8,33-21.2,51.8
		C4.5,100.2,7,111.1,14,121c5.1,7.3,13.1,13.4,21.1,17.3c14,6.9,29,10.3,45,10.2c15.2-0.1,30-3.1,43.8-9.8
		C132.5,134.4,141.3,127.4,146.7,119z"/>
	<path class="st0" d="M154.3,94.7c-0.6,1.5-1,3.2-1.3,4.9c-0.4,2.8-0.7,4.3-0.7,4.4c-1,4-2.7,7.3-4.8,11.3c-0.4,0.7-0.6,2-0.7,3.7
		c-5.4,8.4-14.2,15.4-23,19.7c-13.7,6.7-28.5,9.7-43.8,9.8c-16,0.1-30.9-3.3-45-10.2c-8-3.9-15.9-10-21.1-17.3
		c-7-9.9-9.5-20.8-8.5-33.2c1.4-18.8,8.2-37.9,21.2-51.8C48.3,12.9,83.1,7,111.8,20.5c19.1,9,33.1,26.6,38.8,46.9
		c1.6,5.8,2.8,12.1,3.4,18.8C154.4,89.4,154.5,92.2,154.3,94.7z M103.3,128.1c6.5-1,13.3-3,20.5-6.1c9.5-4.1,17.8-10.9,21.8-20.4
		c2.4-5.7,3.5-11.7,3.4-17.8c-0.4-14.3-4.5-27.5-12.6-39.8c-1.7-2.7-3.8-5.2-6.3-7.5c-5-4.8-8.9-8.5-14.4-11.6
		c-6.7-3.8-13.9-6.6-21.7-8.3c-19-4.1-42.1,0.6-57.1,13.2c-3.2,2.7-6,4.6-8.5,7.6c-3.1,3.8-4.8,6-5.2,6.6c-7.3,11-11.5,23-12.7,36.1
		c-1.1,13,2.5,23.8,10.8,32.2c8.6,8.7,21.8,13.7,34.2,15.5c0.2,0,0.3,0.1,0.5,0.1c0.2,0.1,0.6,0.4,1,1c1.9,2.4,5.3,3.9,9,4.9
		c11,3,22.6,2.5,32.9-2.2c1.1-0.5,2.7-1.5,3.5-2.7C102.7,128.4,103,128.2,103.3,128.1z"/>
	<path class="st1" d="M103.3,128.1c-0.3,0-0.6,0.3-0.9,0.8c-0.8,1.2-2.4,2.2-3.5,2.7c-10.3,4.7-21.9,5.2-32.9,2.2
		c-3.7-1-7.1-2.4-9-4.9c-0.4-0.5-0.7-0.8-1-1c-0.2-0.1-0.3-0.1-0.5-0.1c-12.4-1.8-25.6-6.8-34.2-15.5C13.1,104,9.5,93.3,10.6,80.2
		c1.1-13.1,5.3-25.1,12.7-36.1c0.4-0.6,2.2-2.8,5.2-6.6c2.5-3.1,5.2-4.9,8.5-7.6c15-12.7,38.1-17.4,57.1-13.2
		c7.8,1.7,15.1,4.5,21.7,8.3c5.5,3.2,9.4,6.8,14.4,11.6c2.4,2.4,4.5,4.9,6.3,7.5c8,12.2,12.2,25.5,12.6,39.8
		c0.2,6.1-1,12.1-3.4,17.8c-4,9.5-12.3,16.3-21.8,20.4C116.7,125.1,109.8,127.1,103.3,128.1z M49.8,50.7C38.9,53.6,27,65,23.5,75.8
		c-4.1,12.3,3.5,26.7,18.2,23.6c2.4-0.5,4.4-1.8,5.9-3.7c1.4-1.8,1.7-4.5,2.5-6.7c2.1-5.8,4.9-10.8,8.4-15c3.6-4.2,7.9-6.7,8.1-12.8
		c0.1-2.1-0.4-4-1.5-5.9C61.9,49.7,55.7,49.1,49.8,50.7z M134.8,72.5c-4.5-9.1-12.7-16.7-21.8-20.7c-7.4-3.3-17.5-2.6-19.7,6.5
		c-1.9,8.1,4.8,11.7,9,17.5c3.8,5.2,6.4,10.8,8,16.7c1.7,6.2,8.6,8.3,14.4,7.1c3.3-0.7,6.2-2.4,8.5-5.2
		C138.4,88.3,138.1,79.3,134.8,72.5z M53.1,111c-0.4,0.6-0.4,1.4,0,2c3.7,5.4,8.5,9.2,14.4,11.2c14.4,5.1,30.3,1.5,39-11.6
		c0.3-0.5,0.3-1.2-0.1-1.7l0,0c-0.3-0.3-0.9-0.4-1.2,0c0,0-0.1,0.1-0.1,0.2c-1.2,1.8-2.2,3-3,3.6c-4.4,3.3-9.5,4.3-15.3,3
		c-3.4-0.8-5.6-2.6-5.8-6.3c-0.1-2.2,0-4,0.3-5.4c0.1-0.5,0.5-1,1-1.2c2.8-1.1,4.9-1.9,6.2-2.4c2.9-1.2,8.4-4.9,8.8-8.2
		c0.4-3.6-4.4-4.9-7.4-5.5C82.2,87,74.6,87.1,67,89.1c-2.2,0.6-4.8,1.8-4.9,4.3c-0.2,5.2,10.1,9.5,14.6,11.2c0.8,0.3,1.4,1.1,1.4,2
		v5.9c0,0.4-0.1,0.7-0.3,1c-1.2,2-2.6,3.3-4.2,3.7c-7.8,2.2-14.1,0.1-19.1-6.3c-0.3-0.4-0.8-0.4-1.2-0.2
		C53.2,110.8,53.2,110.9,53.1,111L53.1,111z"/>
	<path d="M23.5,75.8C27,65,38.9,53.6,49.8,50.7c6-1.6,12.1-1.1,15.4,4.5c1.1,1.8,1.6,3.8,1.5,5.9c-0.3,6.1-4.6,8.6-8.1,12.8
		c-3.6,4.2-6.4,9.2-8.4,15c-0.8,2.2-1.1,4.9-2.5,6.7c-1.5,2-3.5,3.2-5.9,3.7C26.9,102.5,19.4,88.1,23.5,75.8z M44,65.6
		c0,0.1,0.2,0.3,0.3,0.2c0.1,0,0.1,0,0.2-0.1c2.2-2.6,5-3.3,8.4-2c1.8,0.7,2.9,2.3,3.3,4.7c0.1,0.3,0.4,0.6,0.7,0.5
		c0.1,0,0.1,0,0.2-0.1l0,0c0.5-0.3,0.8-0.8,0.8-1.4c0.1-7.6-10.3-9.8-13.6-3.3C44.1,64.7,44,65.2,44,65.6z"/>
	<path d="M113,51.8c9.1,4,17.3,11.6,21.8,20.7c3.4,6.8,3.6,15.8-1.5,21.8c-2.3,2.8-5.2,4.5-8.5,5.2c-5.8,1.2-12.8-0.9-14.4-7.1
		c-1.6-5.9-4.3-11.5-8-16.7c-4.2-5.7-10.9-9.4-9-17.5C95.4,49.2,105.6,48.5,113,51.8z M115,65.9c0.1,0.1,0.3,0,0.3-0.1
		c0-0.1,0-0.1,0-0.2c-2.4-8.1-15.8-6.4-13.6,3c0.1,0.4,0.5,0.6,0.9,0.6c0.3-0.1,0.5-0.3,0.6-0.6c0.2-1.2,0.3-1.8,0.7-2.7
		c1.7-3.5,7.5-3.4,10-0.9C114.4,65.4,114.8,65.7,115,65.9z"/>
	<path class="st1" d="M44,65.6c-0.1-0.4,0-0.8,0.3-1.4c3.3-6.4,13.8-4.3,13.6,3.3c0,0.6-0.3,1.1-0.8,1.4l0,0c-0.3,0.2-0.7,0-0.9-0.3
		c0-0.1-0.1-0.1-0.1-0.2c-0.4-2.4-1.5-4-3.3-4.7c-3.4-1.3-6.2-0.7-8.4,2c-0.1,0.1-0.3,0.1-0.4,0C44.1,65.7,44.1,65.6,44,65.6z"/>
	<path class="st1" d="M115,65.9c-0.2-0.1-0.6-0.4-1.1-0.9c-2.5-2.4-8.3-2.6-10,0.9c-0.5,0.9-0.5,1.5-0.7,2.7
		c-0.1,0.4-0.5,0.7-0.8,0.6c-0.3-0.1-0.5-0.3-0.6-0.6c-2.2-9.4,11.2-11.1,13.6-3c0,0.1,0,0.3-0.2,0.3
		C115.1,65.9,115.1,65.9,115,65.9z"/>
	<path d="M53.1,111L53.1,111c0.3-0.4,0.8-0.5,1.2-0.3c0.1,0.1,0.1,0.1,0.2,0.2c4.9,6.4,11.3,8.6,19.1,6.3c1.7-0.5,3.1-1.7,4.2-3.7
		c0.2-0.3,0.3-0.6,0.3-1v-5.9c0-0.9-0.5-1.7-1.4-2c-4.5-1.7-14.8-6-14.6-11.2c0.1-2.5,2.7-3.8,4.9-4.3c7.5-1.9,15.1-2.1,22.7-0.6
		c3,0.6,7.9,1.9,7.4,5.5c-0.4,3.3-5.9,7-8.8,8.2c-1.3,0.6-3.3,1.4-6.2,2.4c-0.5,0.2-0.9,0.6-1,1.2c-0.3,1.4-0.4,3.2-0.3,5.4
		c0.1,3.7,2.4,5.5,5.8,6.3c5.7,1.3,10.8,0.3,15.3-3c0.8-0.6,1.8-1.8,3-3.6c0.3-0.4,0.8-0.5,1.2-0.2c0.1,0,0.1,0.1,0.2,0.1l0,0
		c0.4,0.5,0.5,1.2,0.1,1.7c-8.7,13.1-24.6,16.7-39,11.6c-5.9-2.1-10.7-5.8-14.4-11.2C52.7,112.4,52.7,111.6,53.1,111z"/>
	<path class="st2" d="M154.3,94.7c-0.4,8.7-2.9,16.8-7.6,24.3c0.1-1.7,0.3-3,0.7-3.7c2.1-4,3.8-7.3,4.8-11.3c0-0.2,0.3-1.7,0.7-4.4
		C153.3,97.9,153.7,96.2,154.3,94.7z"/>
</g>
<g>
	<path d="M183.3,100.2V54.1h33.2v8.4H192v12.6h23.2v8.1H192v17.1H183.3z"/>
	<path d="M255.3,91.5h-24.2l-4,8.7h-9.4l20.7-46.2h9.5l20.7,46.2h-9.5L255.3,91.5z M243.2,63.8l-8.6,19.7h17.2L243.2,63.8z"/>
	<path d="M303.4,100.3V81.6h-22.7v18.7H272V54.1h8.7v19.5h22.7V54.1h8.6v46.2H303.4z"/>
	<path d="M361.2,100.2h-10.4l-13.5-15.4H329v15.4h-8.7V54c7.3,0,14.7,0.1,22,0.1c10.9,0.1,16.6,7.3,16.6,15.3
		c0,6.3-2.9,12.7-11.7,14.5l14,15.8V100.2z M329,62.2V77h13.3c5.5,0,7.9-3.7,7.9-7.4c0-3.7-2.4-7.4-7.9-7.4H329z"/>
	<path d="M405.4,76.8c0.2,11.7-6.9,23.5-23.1,23.5c-5.7,0-12.5,0-18.1,0V54.1c5.7,0,12.5,0,18.1,0C398.2,54.1,405.2,65.3,405.4,76.8
		z M372.8,91.9h9.5c10.5,0,14.7-7.7,14.5-15.2c-0.2-7.2-4.4-14.4-14.5-14.4h-9.5V91.9z"/>
	<path d="M411.9,100.2V54.1h8.6v46.2H411.9z"/>
	<path d="M463.2,100.2h-34.6c0-15.4,0-30.8,0-46.2h34.6v8.4h-25.9v10.6h25v8.1h-25v10.4h25.9V100.2z"/>
	<path d="M501.7,54h8.7v46.3H505v0.1l-24.3-31.2v31.1H472V54.1h7.1l22.6,28.6V54z"/>
	<path d="M547.6,65.2c-1.6-2.6-5.9-5.1-11-5.1c-6.5,0-9.6,2.7-9.6,6.1c0,4,4.8,5.1,10.3,5.8c9.6,1.2,18.6,3.7,18.6,14.7
		c0,10.3-9.1,14.7-19.4,14.7c-9.4,0-16.7-2.9-20.1-11.4l7.3-3.8c2,5.1,7.4,7.3,13,7.3c5.5,0,10.6-1.9,10.6-6.9
		c0-4.4-4.6-6.1-10.7-6.8c-9.4-1.1-18.1-3.6-18.1-14c0-9.5,9.4-13.4,17.9-13.5c7.2,0,14.7,2,18.1,9.2L547.6,65.2z"/>
	<path d="M574.7,62H560v-7.9c13.3,0,24.6,0,38,0V62h-14.7v38.3h-8.7V62z"/>
	<path d="M638.5,86.7h-13.1v13.6h-8.7V54.1c7.3,0,14.5-0.1,21.8-0.1C661,54,661.1,86.7,638.5,86.7z M625.4,78.7h13.1
		c11.2,0,11.1-16.4,0-16.4h-13.1V78.7z"/>
	<path d="M694.1,91.5h-24.2l-4,8.7h-9.4l20.7-46.2h9.5l20.7,46.2H698L694.1,91.5z M682,63.8l-8.6,19.7h17.2L682,63.8z"/>
	<path d="M741.8,54h8.7v46.3h-5.4v0.1l-24.3-31.2v31.1h-8.7V54.1h7.1l22.6,28.6V54z"/>
	<path d="M799.2,76.8c0.2,11.7-6.9,23.5-23.1,23.5c-5.7,0-12.5,0-18.1,0V54.1c5.7,0,12.5,0,18.1,0C791.9,54.1,799,65.3,799.2,76.8z
		 M766.6,91.9h9.5c10.5,0,14.7-7.7,14.5-15.2c-0.2-7.2-4.4-14.4-14.5-14.4h-9.5V91.9z"/>
	<path d="M837.7,91.5h-24.2l-4,8.7h-9.4l20.7-46.2h9.5l20.7,46.2h-9.5L837.7,91.5z M825.6,63.8L817,83.4h17.2L825.6,63.8z"/>
</g>
</svg>
